<svg xmlns="http://www.w3.org/2000/svg" width="350" height="350" preserveAspectRatio="none"><g fill="none" mask="url(&quot;#a&quot;)"><path fill="#0e2a47" d="M0 0h350v350H0z"/><path fill="#184a7e" d="M0 92c10-13.6 30-69.4 50-68 20 1.4 30 78.6 50 75 20-3.6 30-108.2 50-93 20 15.2 30 168.2 50 169 20 .8 30-155.6 50-165 20-9.4 30 114.4 50 118 20 3.6 40-80 50-100v322H0z"/><path fill="rgba(26, 91, 155, 1)" d="M0 284c11.8-15.2 35.4-85.4 59-76 23.6 9.4 35.4 116.4 59 123 23.6 6.6 35.4-78.2 59-90 23.6-11.8 35.4 31.6 59 31 23.6-.6 36.2-41.4 59-34 22.8 7.4 44 56.8 55 71v41H0z"/></g><defs><mask id="a"><path fill="#fff" d="M0 0h350v350H0z"/></mask></defs></svg>